<svg width="1401" height="599" viewBox="0 0 1401 599" fill="none" xmlns="http://www.w3.org/2000/svg">
<g clip-path="url(#clip0_3479_6606)">
<path d="M856.61 76.4351C841.269 62.7302 824.506 50.5769 806.573 40.2222V167.515C769.902 126.042 716.244 99.8842 656.466 99.8842C600.472 99.8842 549.85 122.835 513.526 159.826C523.466 174.483 531.889 190.252 538.569 206.904C566.06 172.141 608.65 149.827 656.466 149.827C739.367 149.827 806.573 216.906 806.573 299.654C806.573 358.915 772.101 410.144 722.079 434.446C706.622 441.956 689.681 446.895 671.814 448.706C666.767 449.218 661.647 449.481 656.466 449.481C638.537 449.481 621.34 446.341 605.4 440.586C547.637 419.729 506.36 364.505 506.36 299.654C506.36 189.324 416.752 99.8831 306.216 99.8831C195.681 99.8831 106.074 189.323 106.074 299.653C106.074 409.983 195.681 499.423 306.216 499.423C362.211 499.423 412.832 476.471 449.157 439.479C439.217 424.822 430.79 409.054 424.114 392.4C396.623 427.166 354.029 449.481 306.216 449.481C223.314 449.481 156.109 382.401 156.109 299.653C156.109 216.905 223.314 149.825 306.216 149.825C389.117 149.825 456.323 216.905 456.323 299.653C456.323 320.503 459.524 340.606 465.461 359.501C475.026 389.943 491.691 417.248 513.526 439.482C529.588 455.839 548.446 469.451 569.328 479.548C595.67 492.281 625.235 499.423 656.466 499.423C686.689 499.423 715.35 492.736 741.041 480.764C741.777 480.421 742.505 480.074 743.237 479.723C744.694 479.022 746.144 478.304 747.58 477.568C812.31 444.476 856.61 377.228 856.61 299.654V76.4351Z" fill="#13139C"/>
<path d="M1329.95 99.8848H943.938C954.942 115.635 964.683 132.33 973.012 149.827H1056.75V494.11C1074.5 489.547 1091.31 482.618 1106.79 473.678V311.753V149.827H1393.99C1374.59 130.883 1353.33 113.947 1329.95 99.8848Z" fill="#13139C"/>
<path d="M906.647 299.653C906.647 437.565 794.637 549.366 656.47 549.366C624.972 549.366 594.833 543.555 567.072 532.953C554.961 546.436 541.812 558.976 527.757 570.447C566.764 588.952 610.405 599.308 656.47 599.308C822.272 599.308 956.684 465.147 956.684 299.653C956.684 238.388 938.26 181.417 906.647 133.957V299.653Z" fill="#13139C"/>
<path d="M656.466 0C691.558 0 725.238 6.00864 756.54 17.0513V70.7212C725.893 57.3563 692.048 49.9424 656.466 49.9424C588.283 49.9424 526.468 77.1688 481.341 121.324C469.359 109.597 456.197 99.0639 442.05 89.918C496.539 34.4284 572.473 0 656.466 0Z" fill="#13139C"/>
<path d="M836.982 0C860.456 14.1185 882.133 30.9057 901.596 49.9424H1306.93C1287.47 30.9057 1265.79 14.1185 1242.32 0H836.982Z" fill="#13139C"/>
<path d="M306.221 599.308C390.214 599.308 466.151 564.881 520.64 509.391C506.493 500.244 493.331 489.712 481.345 477.982C436.219 522.138 374.407 549.366 306.221 549.366C168.051 549.366 56.0422 437.565 56.0422 299.654C56.0422 161.742 168.051 49.9424 306.221 49.9424C337.717 49.9424 367.854 55.7518 395.615 66.3557C407.73 52.8709 420.875 40.331 434.934 28.8599C395.926 10.355 352.285 0 306.221 0C140.417 0 6.00635 134.16 6.00635 299.654C6.00635 465.147 140.417 599.308 306.221 599.308Z" fill="#13139C"/>
<path d="M1236.08 199.77H1289.85C1300.92 231.011 1306.93 264.63 1306.93 299.654C1306.93 465.147 1172.53 599.308 1006.72 599.308C960.655 599.308 917.014 588.952 878.007 570.447C892.062 558.976 905.211 546.436 917.326 532.953C945.083 543.555 975.222 549.366 1006.72 549.366C1144.89 549.366 1256.9 437.565 1256.9 299.654C1256.9 264.14 1249.47 230.357 1236.08 199.77Z" fill="#FFC700"/>
</g>
<defs>
<clipPath id="clip0_3479_6606">
<rect width="1401" height="599" fill="white"/>
</clipPath>
</defs>
</svg>
